<svg xmlns="http://www.w3.org/2000/svg" width="256" height="256" viewBox="0 0 100 100"><rect width="100" height="100" rx="20" fill="#115577"></rect><path fill="#000000" d="M37.40 35.57L37.40 35.57L30.88 35.42Q28.32 35.42 24.95 35.94L24.95 35.94Q24.80 38.79 24.36 43.33L24.36 43.33Q22.82 59.45 22.82 64.25Q22.82 69.04 22.97 71.02L22.97 71.02L16.08 71.53L18.36 35.35L2.75 34.47Q2.17 34.47 1.84 33.52Q1.51 32.57 1.51 31.76Q1.51 30.96 2.17 30.00Q2.83 29.05 3.71 29.05L3.71 29.05Q9.05 29.27 14.47 29.79L14.47 29.79Q24.51 30.66 31.54 30.66L31.54 30.66L36.08 30.52Q41.43 30.37 46.70 29.35L46.70 29.35Q47.87 29.57 48.16 33.01L48.16 33.01Q48.24 33.74 48.24 34.18L48.24 34.18Q43.40 35.57 37.40 35.57ZM84.57 75.12L84.57 75.12L84.57 61.72Q77.61 66.48 74.90 68.02L74.90 68.02Q68.60 71.46 63.84 71.46L63.84 71.46Q58.13 71.46 54.02 67.29L54.02 67.29Q49.85 62.96 49.85 57.40L49.85 57.40Q50.22 51.54 52.34 45.53L52.34 45.53Q56.73 32.79 66.91 26.86L66.91 26.86Q71.97 23.85 78.56 23.85L78.56 23.85Q78.71 23.85 78.85 23.85L78.85 23.85L80.83 23.78Q84.20 23.78 83.91 26.42L83.91 26.42Q78.05 26.71 72.92 29.13Q67.79 31.54 64.02 35.61Q60.25 39.67 58.09 45.09Q55.93 50.51 55.93 56.15Q55.93 61.79 58.86 64.28Q61.79 66.77 66.40 66.77L66.40 66.77Q70.36 66.77 77.39 63.33L77.39 63.33Q81.86 61.13 84.05 58.35L84.05 58.35Q85.15 57.03 85.15 55.57L85.15 55.57L85.15 44.73Q82.95 44.73 74.93 46.41Q66.91 48.10 65.67 48.32L65.67 48.32Q65.30 48.10 64.79 47.84Q64.28 47.58 64.20 47.07L64.20 47.07Q64.06 45.97 67.43 43.70L67.43 43.70Q68.23 43.26 77.10 41.98Q85.96 40.70 88.37 40.33Q90.79 39.97 92.40 39.75L92.40 39.75Q93.14 39.89 94.23 39.71Q95.33 39.53 96.28 39.60L96.28 39.60Q98.63 39.67 98.48 42.16L98.48 42.16L92.40 44.65Q91.01 49.12 91.01 61.50L91.01 61.50L91.16 72.41Q91.16 73.88 91.16 75.12L91.16 75.12Q88.96 76.22 86.91 76.22Q84.86 76.22 84.57 75.12Z"></path></svg>